<?xml version="1.0" encoding="utf-8"?>
<!-- Generator: Adobe Illustrator 24.0.3, SVG Export Plug-In . SVG Version: 6.00 Build 0)  -->
<svg version="1.1" id="Layer_1" xmlns="http://www.w3.org/2000/svg" xmlns:xlink="http://www.w3.org/1999/xlink" x="0px" y="0px"
	 viewBox="0 0 1024 1024" style="enable-background:new 0 0 1024 1024;" xml:space="preserve">
<style type="text/css">
	.st0{fill:none;}
</style>
<path class="st0" d="M0,0h1024v1024H0V0z"/>
<path d="M810.7,341.3H213.3c-70.8,0-128,57.2-128,128V640c0,46.9,38.4,85.3,85.3,85.3H256v85.3c0,46.9,38.4,85.3,85.3,85.3h341.3
	c46.9,0,85.3-38.4,85.3-85.3v-85.3h85.3c46.9,0,85.3-38.4,85.3-85.3V469.3C938.7,398.5,881.5,341.3,810.7,341.3z M640,810.7H384
	c-23.5,0-42.7-19.2-42.7-42.7V597.3h341.3V768C682.7,791.5,663.5,810.7,640,810.7z M810.7,512c-23.5,0-42.7-19.2-42.7-42.7
	s19.2-42.7,42.7-42.7c23.5,0,42.7,19.2,42.7,42.7S834.1,512,810.7,512z M725.3,128H298.7c-23.5,0-42.7,19.2-42.7,42.7V256
	c0,23.5,19.2,42.7,42.7,42.7h426.7c23.5,0,42.7-19.2,42.7-42.7v-85.3C768,147.2,748.8,128,725.3,128z"/>
</svg>
