<?xml version="1.0" encoding="utf-8"?>
<svg fill="#2d2d2d" xmlns="http://www.w3.org/2000/svg" width="81.425px" height="81.425px" viewBox="0 0 81.4 81.4"
     style="enable-background:new 0 0 81.4 81.4;">
    <path d="M28.5,39.7c-2.8,0-5.1,2.3-5.1,5.1s2.3,5.1,5.1,5.1s5.1-2.3,5.1-5.1S31.3,39.7,28.5,39.7z M52.9,39.7
		c-2.8,0-5.1,2.3-5.1,5.1s2.3,5.1,5.1,5.1s5.1-2.3,5.1-5.1S55.7,39.7,52.9,39.7z M40.7,0C18.2,0,0,18.2,0,40.7s18.2,40.7,40.7,40.7
		s40.7-18.2,40.7-40.7S63.2,0,40.7,0z M40.7,73.3c-18,0-32.6-14.6-32.6-32.6c0-1.2,0.1-2.4,0.2-3.5c9.6-4.3,17.2-12.1,21.2-21.9
		c7.4,10.4,19.5,17.2,33.2,17.2c3.2,0,6.2-0.4,9.2-1.1c0.9,2.9,1.3,6,1.3,9.2C73.3,58.7,58.7,73.3,40.7,73.3z"/>
</svg>
